<svg width="81" height="24" viewBox="0 0 81 24" fill="none" xmlns="http://www.w3.org/2000/svg">
<path d="M10.15 1.66264H14.02L23.26 22.8376H17.98L16.15 18.3514H7.89997L6.12997 22.8376H0.969971L10.15 1.66264ZM11.95 7.82372L9.36997 14.4035H14.56L11.95 7.82372Z" fill="#01996D"/>
<path d="M24.8863 0.227051H29.3863V22.8376H24.8863V0.227051Z" fill="#01996D"/>
<path d="M32.6793 8.30226H37.1793V22.8376H32.6793V8.30226ZM32.3193 3.72631C32.3193 3.00851 32.5693 2.40038 33.0693 1.90191C33.5893 1.3835 34.2093 1.1243 34.9293 1.1243C35.6493 1.1243 36.2593 1.3835 36.7593 1.90191C37.2793 2.40038 37.5393 3.00851 37.5393 3.72631C37.5393 4.4441 37.2793 5.0622 36.7593 5.58061C36.2593 6.07908 35.6493 6.32832 34.9293 6.32832C34.2093 6.32832 33.5893 6.07908 33.0693 5.58061C32.5693 5.0622 32.3193 4.4441 32.3193 3.72631Z" fill="#01996D"/>
<path d="M38.8822 8.30226H43.7422L47.4322 18.1719H47.4922L50.9122 8.30226H55.4422L49.6822 22.8376H44.9122L38.8822 8.30226Z" fill="#01996D"/>
<path d="M57.1422 8.30226H61.6422V22.8376H57.1422V8.30226ZM56.7822 3.72631C56.7822 3.00851 57.0322 2.40038 57.5322 1.90191C58.0522 1.3835 58.6722 1.1243 59.3922 1.1243C60.1122 1.1243 60.7222 1.3835 61.2222 1.90191C61.7422 2.40038 62.0022 3.00851 62.0022 3.72631C62.0022 4.4441 61.7422 5.0622 61.2222 5.58061C60.7222 6.07908 60.1122 6.32832 59.3922 6.32832C58.6722 6.32832 58.0522 6.07908 57.5322 5.58061C57.0322 5.0622 56.7822 4.4441 56.7822 3.72631Z" fill="#01996D"/>
<path d="M64.3351 15.5699C64.3351 14.4135 64.5451 13.3667 64.9651 12.4296C65.3851 11.4925 65.9551 10.6949 66.6751 10.0369C67.4151 9.35901 68.2751 8.8406 69.2551 8.4817C70.2551 8.12281 71.3151 7.94336 72.4351 7.94336C73.5551 7.94336 74.6051 8.12281 75.5851 8.4817C76.5851 8.8406 77.4451 9.35901 78.1651 10.0369C78.9051 10.6949 79.4851 11.4925 79.9051 12.4296C80.3251 13.3667 80.5351 14.4135 80.5351 15.5699C80.5351 16.7264 80.3251 17.7732 79.9051 18.7103C79.4851 19.6474 78.9051 20.4549 78.1651 21.1329C77.4451 21.7908 76.5851 22.2993 75.5851 22.6582C74.6051 23.0171 73.5551 23.1965 72.4351 23.1965C71.3151 23.1965 70.2551 23.0171 69.2551 22.6582C68.2751 22.2993 67.4151 21.7908 66.6751 21.1329C65.9551 20.4549 65.3851 19.6474 64.9651 18.7103C64.5451 17.7732 64.3351 16.7264 64.3351 15.5699ZM68.8351 15.5699C68.8351 16.6666 69.1451 17.5538 69.7651 18.2318C70.4051 18.9097 71.2951 19.2486 72.4351 19.2486C73.5751 19.2486 74.4551 18.9097 75.0751 18.2318C75.7151 17.5538 76.0351 16.6666 76.0351 15.5699C76.0351 14.4733 75.7151 13.586 75.0751 12.9081C74.4551 12.2302 73.5751 11.8912 72.4351 11.8912C71.2951 11.8912 70.4051 12.2302 69.7651 12.9081C69.1451 13.586 68.8351 14.4733 68.8351 15.5699Z" fill="#01996D"/>
</svg>
